<svg width="1440" height="780" viewBox="0 0 1440 780" fill="none" xmlns="http://www.w3.org/2000/svg">
<g clip-path="url(#clip0_467_125)">
<rect width="1440" height="780" fill="black"/>
<path d="M41.531 643L39.675 627.064C39.3763 624.205 38.779 621.816 37.883 619.896C36.987 617.976 35.643 616.525 33.851 615.544C32.059 614.52 29.5843 614.008 26.427 614.008L6.651 613.944V601.016L27.451 600.952C32.1017 600.952 35.4297 599.885 37.435 597.752C39.483 595.576 40.507 592.483 40.507 588.472V586.936C40.507 582.968 39.483 579.96 37.435 577.912C35.4297 575.821 32.059 574.776 27.323 574.776H6.459V561.208H29.691C39.291 561.208 46.2883 563.149 50.683 567.032C55.1203 570.915 57.339 576.44 57.339 583.608V585.4C57.339 590.776 56.0377 595.043 53.435 598.2C50.8323 601.357 46.6937 603.235 41.019 603.832V606.136L36.347 603.832C41.211 604.173 44.9657 605.197 47.611 606.904C50.299 608.611 52.2617 610.979 53.499 614.008C54.7363 616.995 55.675 620.707 56.315 625.144L58.811 643H41.531ZM-4.997 643V561.208H11.387V605.624L11.515 611.832V643H-4.997ZM98.047 644.536C87.295 644.536 79.295 642.061 74.047 637.112C68.799 632.163 66.175 624.995 66.175 615.608V607.416C66.175 598.115 68.6283 590.968 73.535 585.976C78.4417 580.984 85.567 578.488 94.911 578.488C101.226 578.488 106.495 579.597 110.719 581.816C114.943 584.035 118.1 587.192 120.191 591.288C122.324 595.341 123.391 600.205 123.391 605.88V608.12C123.391 609.656 123.306 611.235 123.135 612.856C123.007 614.435 122.815 615.928 122.559 617.336H107.711C107.839 614.989 107.903 612.771 107.903 610.68C107.946 608.547 107.967 606.627 107.967 604.92C107.967 601.976 107.498 599.48 106.559 597.432C105.62 595.341 104.191 593.763 102.271 592.696C100.351 591.629 97.8977 591.096 94.911 591.096C90.5163 591.096 87.2737 592.312 85.183 594.744C83.0923 597.176 82.047 600.632 82.047 605.112V610.936L82.111 612.792V617.72C82.111 619.683 82.4097 621.496 83.007 623.16C83.647 624.824 84.6923 626.275 86.143 627.512C87.5937 628.707 89.5137 629.645 91.903 630.328C94.335 631.011 97.3643 631.352 100.991 631.352C104.916 631.352 108.65 630.925 112.191 630.072C115.775 629.176 119.167 627.981 122.367 626.488L120.959 639.416C118.1 640.995 114.73 642.232 110.847 643.128C107.007 644.067 102.74 644.536 98.047 644.536ZM74.879 617.336V606.456H119.231V617.336H74.879ZM159.613 644.344C154.28 644.344 150.013 643.555 146.813 641.976C143.656 640.355 141.373 637.923 139.965 634.68C138.557 631.437 137.853 627.448 137.853 622.712V586.104H154.109V620.28C154.109 623.693 154.877 626.211 156.413 627.832C157.992 629.411 160.744 630.2 164.669 630.2C166.973 630.2 169.192 629.965 171.325 629.496C173.458 628.984 175.421 628.323 177.213 627.512L175.805 641.208C173.672 642.189 171.218 642.957 168.445 643.512C165.714 644.067 162.77 644.344 159.613 644.344ZM128.765 593.656V580.728H176.637L175.229 593.656H128.765ZM138.045 581.944L137.981 565.304L154.301 563.64L153.661 581.944H138.045ZM209.623 556.408C212.951 556.408 216.023 556.685 218.839 557.24C221.655 557.795 224.151 558.477 226.327 559.288L227.799 571.576C225.964 571.021 224.044 570.573 222.039 570.232C220.076 569.848 217.9 569.656 215.511 569.656C212.652 569.656 210.391 569.976 208.727 570.616C207.106 571.256 205.954 572.173 205.271 573.368C204.588 574.563 204.247 575.971 204.247 577.592V577.784C204.247 578.936 204.418 580.024 204.759 581.048C205.1 582.072 205.506 582.989 205.975 583.8L195.287 584.184V582.456C193.324 581.517 191.66 580.131 190.295 578.296C188.93 576.461 188.247 574.179 188.247 571.448V571.128C188.247 566.605 189.975 563.021 193.431 560.376C196.93 557.731 202.327 556.408 209.623 556.408ZM190.423 643V587.576H206.743V643H190.423ZM181.335 595.896V582.904L197.207 583.032L203.607 582.904H227.671L226.263 595.896H181.335ZM262.057 644.728C252.329 644.728 244.948 642.232 239.913 637.24C234.921 632.248 232.425 625.144 232.425 615.928V607.416C232.425 598.157 234.921 591.032 239.913 586.04C244.948 581.005 252.329 578.488 262.057 578.488C271.742 578.488 279.081 581.005 284.073 586.04C289.065 591.032 291.561 598.157 291.561 607.416V615.928C291.561 625.144 289.065 632.248 284.073 637.24C279.124 642.232 271.785 644.728 262.057 644.728ZM262.057 631.608C266.324 631.608 269.566 630.328 271.785 627.768C274.046 625.208 275.177 621.539 275.177 616.76V606.584C275.177 601.72 274.046 598.008 271.785 595.448C269.566 592.845 266.324 591.544 262.057 591.544C257.748 591.544 254.462 592.845 252.201 595.448C249.982 598.008 248.873 601.72 248.873 606.584V616.76C248.873 621.539 249.982 625.208 252.201 627.768C254.462 630.328 257.748 631.608 262.057 631.608ZM303.671 643V558.392H320.119V643H303.671ZM334.796 643V580.216H351.18V643H334.796ZM342.988 572.792C339.873 572.792 337.569 572.067 336.076 570.616C334.625 569.123 333.9 567.075 333.9 564.472V564.152C333.9 561.549 334.625 559.501 336.076 558.008C337.569 556.515 339.873 555.768 342.988 555.768C346.06 555.768 348.343 556.515 349.836 558.008C351.329 559.501 352.076 561.549 352.076 564.152V564.472C352.076 567.117 351.329 569.165 349.836 570.616C348.343 572.067 346.06 572.792 342.988 572.792ZM392.807 644.728C383.079 644.728 375.698 642.232 370.663 637.24C365.671 632.248 363.175 625.144 363.175 615.928V607.416C363.175 598.157 365.671 591.032 370.663 586.04C375.698 581.005 383.079 578.488 392.807 578.488C402.492 578.488 409.831 581.005 414.823 586.04C419.815 591.032 422.311 598.157 422.311 607.416V615.928C422.311 625.144 419.815 632.248 414.823 637.24C409.874 642.232 402.535 644.728 392.807 644.728ZM392.807 631.608C397.074 631.608 400.316 630.328 402.535 627.768C404.796 625.208 405.927 621.539 405.927 616.76V606.584C405.927 601.72 404.796 598.008 402.535 595.448C400.316 592.845 397.074 591.544 392.807 591.544C388.498 591.544 385.212 592.845 382.951 595.448C380.732 598.008 379.623 601.72 379.623 606.584V616.76C379.623 621.539 380.732 625.208 382.951 627.768C385.212 630.328 388.498 631.608 392.807 631.608Z" fill="white" fill-opacity="0.1"/>
</g>
<defs>
<clipPath id="clip0_467_125">
<rect width="1440" height="780" fill="white"/>
</clipPath>
</defs>
</svg>
