<svg width="105" height="31" viewBox="0 0 105 31" fill="none" xmlns="http://www.w3.org/2000/svg">
<path d="M38.54 22L38.25 19.51C38.2033 19.0633 38.11 18.69 37.97 18.39C37.83 18.09 37.62 17.8633 37.34 17.71C37.06 17.55 36.6733 17.47 36.18 17.47L33.09 17.46V15.44L36.34 15.43C37.0667 15.43 37.5867 15.2633 37.9 14.93C38.22 14.59 38.38 14.1067 38.38 13.48V13.24C38.38 12.62 38.22 12.15 37.9 11.83C37.5867 11.5033 37.06 11.34 36.32 11.34H33.06V9.22H36.69C38.19 9.22 39.2833 9.52333 39.97 10.13C40.6633 10.7367 41.01 11.6 41.01 12.72V13C41.01 13.84 40.8067 14.5067 40.4 15C39.9933 15.4933 39.3467 15.7867 38.46 15.88V16.24L37.73 15.88C38.49 15.9333 39.0767 16.0933 39.49 16.36C39.91 16.6267 40.2167 16.9967 40.41 17.47C40.6033 17.9367 40.75 18.5167 40.85 19.21L41.24 22H38.54ZM31.27 22V9.22H33.83V16.16L33.85 17.13V22H31.27ZM47.3706 22.24C45.6906 22.24 44.4406 21.8533 43.6206 21.08C42.8006 20.3067 42.3906 19.1867 42.3906 17.72V16.44C42.3906 14.9867 42.774 13.87 43.5406 13.09C44.3073 12.31 45.4206 11.92 46.8806 11.92C47.8673 11.92 48.6906 12.0933 49.3506 12.44C50.0106 12.7867 50.504 13.28 50.8306 13.92C51.164 14.5533 51.3306 15.3133 51.3306 16.2V16.55C51.3306 16.79 51.3173 17.0367 51.2906 17.29C51.2706 17.5367 51.2406 17.77 51.2006 17.99H48.8806C48.9006 17.6233 48.9106 17.2767 48.9106 16.95C48.9173 16.6167 48.9206 16.3167 48.9206 16.05C48.9206 15.59 48.8473 15.2 48.7006 14.88C48.554 14.5533 48.3306 14.3067 48.0306 14.14C47.7306 13.9733 47.3473 13.89 46.8806 13.89C46.194 13.89 45.6873 14.08 45.3606 14.46C45.034 14.84 44.8706 15.38 44.8706 16.08V16.99L44.8806 17.28V18.05C44.8806 18.3567 44.9273 18.64 45.0206 18.9C45.1206 19.16 45.284 19.3867 45.5106 19.58C45.7373 19.7667 46.0373 19.9133 46.4106 20.02C46.7906 20.1267 47.264 20.18 47.8306 20.18C48.444 20.18 49.0273 20.1133 49.5806 19.98C50.1406 19.84 50.6706 19.6533 51.1706 19.42L50.9506 21.44C50.504 21.6867 49.9773 21.88 49.3706 22.02C48.7706 22.1667 48.104 22.24 47.3706 22.24ZM43.7506 17.99V16.29H50.6806V17.99H43.7506ZM56.9903 22.21C56.157 22.21 55.4903 22.0867 54.9903 21.84C54.497 21.5867 54.1403 21.2067 53.9203 20.7C53.7003 20.1933 53.5903 19.57 53.5903 18.83V13.11H56.1303V18.45C56.1303 18.9833 56.2503 19.3767 56.4903 19.63C56.737 19.8767 57.167 20 57.7803 20C58.1403 20 58.487 19.9633 58.8203 19.89C59.1536 19.81 59.4603 19.7067 59.7403 19.58L59.5203 21.72C59.187 21.8733 58.8036 21.9933 58.3703 22.08C57.9436 22.1667 57.4836 22.21 56.9903 22.21ZM52.1703 14.29V12.27H59.6503L59.4303 14.29H52.1703ZM53.6203 12.46L53.6103 9.86L56.1603 9.6L56.0603 12.46H53.6203ZM64.8044 8.47C65.3244 8.47 65.8044 8.51333 66.2444 8.6C66.6844 8.68667 67.0744 8.79333 67.4144 8.92L67.6444 10.84C67.3577 10.7533 67.0577 10.6833 66.7444 10.63C66.4377 10.57 66.0977 10.54 65.7244 10.54C65.2777 10.54 64.9244 10.59 64.6644 10.69C64.411 10.79 64.231 10.9333 64.1244 11.12C64.0177 11.3067 63.9644 11.5267 63.9644 11.78V11.81C63.9644 11.99 63.991 12.16 64.0444 12.32C64.0977 12.48 64.161 12.6233 64.2344 12.75L62.5644 12.81V12.54C62.2577 12.3933 61.9977 12.1767 61.7844 11.89C61.571 11.6033 61.4644 11.2467 61.4644 10.82V10.77C61.4644 10.0633 61.7344 9.50333 62.2744 9.09C62.821 8.67667 63.6644 8.47 64.8044 8.47ZM61.8044 22V13.34H64.3544V22H61.8044ZM60.3844 14.64V12.61L62.8644 12.63L63.8644 12.61H67.6244L67.4044 14.64H60.3844ZM72.9972 22.27C71.4772 22.27 70.3239 21.88 69.5372 21.1C68.7572 20.32 68.3672 19.21 68.3672 17.77V16.44C68.3672 14.9933 68.7572 13.88 69.5372 13.1C70.3239 12.3133 71.4772 11.92 72.9972 11.92C74.5105 11.92 75.6572 12.3133 76.4372 13.1C77.2172 13.88 77.6072 14.9933 77.6072 16.44V17.77C77.6072 19.21 77.2172 20.32 76.4372 21.1C75.6639 21.88 74.5172 22.27 72.9972 22.27ZM72.9972 20.22C73.6639 20.22 74.1705 20.02 74.5172 19.62C74.8705 19.22 75.0472 18.6467 75.0472 17.9V16.31C75.0472 15.55 74.8705 14.97 74.5172 14.57C74.1705 14.1633 73.6639 13.96 72.9972 13.96C72.3239 13.96 71.8105 14.1633 71.4572 14.57C71.1105 14.97 70.9372 15.55 70.9372 16.31V17.9C70.9372 18.6467 71.1105 19.22 71.4572 19.62C71.8105 20.02 72.3239 20.22 72.9972 20.22ZM79.4994 22V8.78H82.0694V22H79.4994ZM84.3627 22V12.19H86.9227V22H84.3627ZM85.6427 11.03C85.156 11.03 84.796 10.9167 84.5627 10.69C84.336 10.4567 84.2227 10.1367 84.2227 9.73V9.68C84.2227 9.27333 84.336 8.95333 84.5627 8.72C84.796 8.48667 85.156 8.37 85.6427 8.37C86.1227 8.37 86.4793 8.48667 86.7127 8.72C86.946 8.95333 87.0627 9.27333 87.0627 9.68V9.73C87.0627 10.1433 86.946 10.4633 86.7127 10.69C86.4793 10.9167 86.1227 11.03 85.6427 11.03ZM93.4269 22.27C91.9069 22.27 90.7535 21.88 89.9669 21.1C89.1869 20.32 88.7969 19.21 88.7969 17.77V16.44C88.7969 14.9933 89.1869 13.88 89.9669 13.1C90.7535 12.3133 91.9069 11.92 93.4269 11.92C94.9402 11.92 96.0869 12.3133 96.8669 13.1C97.6469 13.88 98.0369 14.9933 98.0369 16.44V17.77C98.0369 19.21 97.6469 20.32 96.8669 21.1C96.0935 21.88 94.9469 22.27 93.4269 22.27ZM93.4269 20.22C94.0935 20.22 94.6002 20.02 94.9469 19.62C95.3002 19.22 95.4769 18.6467 95.4769 17.9V16.31C95.4769 15.55 95.3002 14.97 94.9469 14.57C94.6002 14.1633 94.0935 13.96 93.4269 13.96C92.7535 13.96 92.2402 14.1633 91.8869 14.57C91.5402 14.97 91.3669 15.55 91.3669 16.31V17.9C91.3669 18.6467 91.5402 19.22 91.8869 19.62C92.2402 20.02 92.7535 20.22 93.4269 20.22Z" fill="white"/>
<path d="M7.56326 25.2703L5.15528 23.7704H9.97123L7.56326 25.2703Z" fill="#FFFB00"/>
<path d="M7.5625 25.2703L5.16819 26.7681V23.7725L7.5625 25.2703Z" fill="#FFFB00"/>
<rect x="5.17188" y="13.2017" width="4.80296" height="10.5912" fill="#FFFB00"/>
<path d="M7.58127 11.7239L9.98925 13.2237H5.1733L7.58127 11.7239Z" fill="#FFFB00"/>
<path d="M7.58203 11.7238L9.97634 10.226V13.2217L7.58203 11.7238Z" fill="#FFFB00"/>
<path d="M7.56326 8.81519L5.15528 10.315H9.97123L7.56326 8.81519Z" fill="#FFFB00"/>
<path d="M7.5625 8.81516L5.16819 7.31734V10.313L7.5625 8.81516Z" fill="#FFFB00"/>
<path d="M2.78049 8.81519L5.18847 10.315H0.372515L2.78049 8.81519Z" fill="#FFFB00"/>
<path d="M2.78125 8.81516L5.17556 7.31734V10.313L2.78125 8.81516Z" fill="#FFFB00"/>
<path d="M2.78049 11.7705L5.18847 10.2707H0.372515L2.78049 11.7705Z" fill="#FFFB00"/>
<path d="M2.78125 11.7705L5.17556 13.2683V10.2727L2.78125 11.7705Z" fill="#FFFB00"/>
<path d="M7.56326 11.7705L5.15528 10.2707H9.97123L7.56326 11.7705Z" fill="#FFFB00"/>
<path d="M7.5625 11.7705L5.16819 13.2683V10.2727L7.5625 11.7705Z" fill="#FFFB00"/>
<path d="M7.56326 25.2703L5.15528 23.7704H9.97123L7.56326 25.2703Z" fill="#FFFB00"/>
<path d="M7.5625 25.2703L5.16819 26.7681V23.7725L7.5625 25.2703Z" fill="#FFFB00"/>
<rect x="5.17188" y="13.2017" width="4.80296" height="10.5912" fill="#FFFB00"/>
<path d="M7.58127 11.7239L9.98925 13.2237H5.1733L7.58127 11.7239Z" fill="#FFFB00"/>
<path d="M7.58203 11.7238L9.97634 10.226V13.2217L7.58203 11.7238Z" fill="#FFFB00"/>
<path d="M7.56326 8.81519L5.15528 10.315H9.97123L7.56326 8.81519Z" fill="#FFFB00"/>
<path d="M7.5625 8.81516L5.16819 7.31734V10.313L7.5625 8.81516Z" fill="#FFFB00"/>
<path d="M2.78049 8.81519L5.18847 10.315H0.372515L2.78049 8.81519Z" fill="#FFFB00"/>
<path d="M2.78125 8.81516L5.17556 7.31734V10.313L2.78125 8.81516Z" fill="#FFFB00"/>
<path d="M2.78049 11.7705L5.18847 10.2707H0.372515L2.78049 11.7705Z" fill="#FFFB00"/>
<path d="M2.78125 11.7705L5.17556 13.2683V10.2727L2.78125 11.7705Z" fill="#FFFB00"/>
<path d="M7.56326 11.7705L5.15528 10.2707H9.97123L7.56326 11.7705Z" fill="#FFFB00"/>
<path d="M7.5625 11.7705L5.16819 13.2683V10.2727L7.5625 11.7705Z" fill="#FFFB00"/>
<path d="M21.7859 17.2151L19.3779 15.7153H24.1939L21.7859 17.2151Z" fill="#FFFB00"/>
<path d="M21.7852 17.2151L19.3908 18.7129V15.7173L21.7852 17.2151Z" fill="#FFFB00"/>
<rect x="19.3984" y="9.84521" width="4.80296" height="5.89227" fill="#FFFB00"/>
<path d="M21.8117 8.36768L24.2197 9.8675H19.4038L21.8117 8.36768Z" fill="#FFFB00"/>
<path d="M21.8125 8.36765L24.2068 6.86983V9.86546L21.8125 8.36765Z" fill="#FFFB00"/>
<path d="M21.7859 5.45898L19.3779 6.9588H24.1939L21.7859 5.45898Z" fill="#FFFB00"/>
<path d="M21.7852 5.45895L19.3908 3.96114V6.95676L21.7852 5.45895Z" fill="#FFFB00"/>
<path d="M17.011 5.45898L19.4189 6.9588H14.603L17.011 5.45898Z" fill="#FFFB00"/>
<path d="M17.0117 5.45895L19.406 3.96114V6.95676L17.0117 5.45895Z" fill="#FFFB00"/>
<path d="M17.011 8.41431L19.4189 6.91449H14.603L17.011 8.41431Z" fill="#FFFB00"/>
<path d="M17.0117 8.41434L19.406 9.91215V6.91653L17.0117 8.41434Z" fill="#FFFB00"/>
<path d="M21.7859 8.41431L19.3779 6.91449H24.1939L21.7859 8.41431Z" fill="#FFFB00"/>
<path d="M21.7852 8.41434L19.3908 9.91215V6.91653L21.7852 8.41434Z" fill="#FFFB00"/>
<path d="M15.1375 21.0935L12.7295 19.5937H17.5455L15.1375 21.0935Z" fill="#FFFB00"/>
<path d="M15.1367 21.0935L12.7424 22.5913V19.5957L15.1367 21.0935Z" fill="#FFFB00"/>
<rect x="12.7461" y="6.11597" width="4.80296" height="13.5746" fill="#FFFB00"/>
<path d="M15.1555 4.63843L17.5635 6.13825H12.7475L15.1555 4.63843Z" fill="#FFFB00"/>
<path d="M15.1562 4.6384L17.5506 3.14059V6.13621L15.1562 4.6384Z" fill="#FFFB00"/>
<path d="M15.1375 1.72974L12.7295 3.22956H17.5455L15.1375 1.72974Z" fill="#FFFB00"/>
<path d="M15.1367 1.72971L12.7424 0.231895V3.22752L15.1367 1.72971Z" fill="#FFFB00"/>
<path d="M10.3547 1.72949L12.7627 3.22931H7.94673L10.3547 1.72949Z" fill="#FFFB00"/>
<path d="M10.3555 1.72946L12.7498 0.231651V3.22727L10.3555 1.72946Z" fill="#FFFB00"/>
<path d="M10.3547 4.68481L12.7627 3.18499H7.94673L10.3547 4.68481Z" fill="#FFFB00"/>
<path d="M10.3555 4.68484L12.7498 6.18266V3.18703L10.3555 4.68484Z" fill="#FFFB00"/>
<path d="M15.1375 4.68481L12.7295 3.18499H17.5455L15.1375 4.68481Z" fill="#FFFB00"/>
<path d="M15.1367 4.68484L12.7424 6.18266V3.18703L15.1367 4.68484Z" fill="#FFFB00"/>
</svg>
